# xmcd CD database file
#
# Track frame offsets:
#	150
#	27332
#	66567
#	102182
#	145632
#
# Disc length: 2587 seconds
#
# Revision: 4
# Processed by: cddbd v1.5.1PL0 Copyright (c) Steve Scherf et al.
# Submitted via: CDex 1.51
#
DISCID=410a1905
DTITLE=Albert Mangelsdorff - Jaco Pastorius - Alphonse Mouzon - Trilogue - Live!
DYEAR=1977
DGENRE=Jazz
TTITLE0=Trilogue
TTITLE1=Zores Mores
TTITLE2=Foreign Fun
TTITLE3=Accidental Meeting
TTITLE4=Ant Steps on an Elephant's Toe
EXTD=YEAR: 1977
EXTT0=
EXTT1=
EXTT2=
EXTT3=
EXTT4=
PLAYORDER=
